<svg width="20" height="20" viewBox="0 0 20 20" fill="none" xmlns="http://www.w3.org/2000/svg">
<g clip-path="url(#clip0_109_63)">
<path fill-rule="evenodd" clip-rule="evenodd" d="M4.36603 19.708C4.77103 20.098 5.42603 20.098 5.83003 19.708L14.393 11.4439C14.5847 11.2617 14.7373 11.0428 14.8416 10.7998C14.9459 10.5568 14.9997 10.2947 14.9997 10.0303C14.9997 9.76587 14.9459 9.50425 14.8416 9.26126C14.7373 9.01826 14.5847 8.79938 14.393 8.61721L5.76803 0.292017C5.57229 0.105965 5.31307 0.00139415 5.04301 -0.000463169C4.77296 -0.00232048 4.51231 0.0989091 4.31402 0.282252C4.2158 0.372792 4.13721 0.48237 4.08311 0.604517C4.02902 0.726665 4.00057 0.858626 3.99954 0.992213C3.99851 1.1258 4.02491 1.25792 4.07712 1.38088C4.12932 1.50385 4.2062 1.61501 4.30302 1.70706L12.197 9.32424C12.2929 9.41533 12.3693 9.52496 12.4215 9.64651C12.4737 9.76805 12.5006 9.89851 12.5006 10.0308C12.5006 10.1631 12.4737 10.294 12.4215 10.4156C12.3693 10.5371 12.2929 10.6467 12.197 10.7378L4.36603 18.2949C4.27014 18.3859 4.19378 18.4958 4.1416 18.6172C4.08942 18.7387 4.0625 18.8693 4.0625 19.0015C4.0625 19.1337 4.08942 19.2643 4.1416 19.3858C4.19378 19.5072 4.27014 19.617 4.36603 19.708" fill="black"/>
</g>
<defs>
<clipPath id="clip0_109_63">
<rect width="20" height="20" fill="white"/>
</clipPath>
</defs>
</svg>
