<svg width="32" height="32" viewBox="0 0 32 32" fill="none" xmlns="http://www.w3.org/2000/svg">
<path d="M28 14.9999C28 15.2651 27.8946 15.5195 27.7071 15.707C27.5196 15.8945 27.2652 15.9999 27 15.9999H7.414L11.706 20.2919C11.8882 20.4805 11.989 20.7331 11.9867 20.9953C11.9844 21.2575 11.8792 21.5083 11.6938 21.6937C11.5084 21.8791 11.2576 21.9843 10.9954 21.9866C10.7332 21.9888 10.4806 21.8881 10.292 21.7059L4.292 15.7059C4.19947 15.6139 4.12603 15.5045 4.07592 15.384C4.02581 15.2636 4.00001 15.1344 4 15.0039V14.9999C4 14.8699 4.026 14.7399 4.078 14.6179C4.12784 14.4967 4.20126 14.3865 4.294 14.2939L10.294 8.2939C10.4826 8.11174 10.7352 8.01094 10.9974 8.01322C11.2596 8.0155 11.5104 8.12067 11.6958 8.30608C11.8812 8.49148 11.9864 8.7423 11.9887 9.00449C11.991 9.26669 11.8902 9.51929 11.708 9.7079L7.414 13.9999H27C27.2652 13.9999 27.5196 14.1053 27.7071 14.2928C27.8946 14.4803 28 14.7347 28 14.9999Z" fill="black"/>
</svg>
