<?xml version="1.0" encoding="UTF-8" standalone="no"?>
<svg
   xmlns:dc="http://purl.org/dc/elements/1.1/"
   xmlns:cc="http://creativecommons.org/ns#"
   xmlns:rdf="http://www.w3.org/1999/02/22-rdf-syntax-ns#"
   xmlns:svg="http://www.w3.org/2000/svg"
   xmlns="http://www.w3.org/2000/svg"
   xmlns:sodipodi="http://sodipodi.sourceforge.net/DTD/sodipodi-0.dtd"
   xmlns:inkscape="http://www.inkscape.org/namespaces/inkscape"
   width="22"
   height="22"
   viewBox="0 0 22 22"
   fill="none"
   id="svg3353"
   version="1.1"
   inkscape:version="0.91 r13725"
   sodipodi:docname="calendar.svg">
  <metadata
     id="metadata3367">
    <rdf:RDF>
      <cc:Work
         rdf:about="">
        <dc:format>image/svg+xml</dc:format>
        <dc:type
           rdf:resource="http://purl.org/dc/dcmitype/StillImage" />
        <dc:title></dc:title>
      </cc:Work>
    </rdf:RDF>
  </metadata>
  <defs
     id="defs3365" />
  <sodipodi:namedview
     pagecolor="#ffffff"
     bordercolor="#666666"
     borderopacity="1"
     objecttolerance="10"
     gridtolerance="10"
     guidetolerance="10"
     inkscape:pageopacity="0"
     inkscape:pageshadow="2"
     inkscape:window-width="1920"
     inkscape:window-height="1057"
     id="namedview3363"
     showgrid="false"
     inkscape:zoom="10.727273"
     inkscape:cx="11"
     inkscape:cy="11"
     inkscape:window-x="-8"
     inkscape:window-y="-8"
     inkscape:window-maximized="1"
     inkscape:current-layer="svg3353" />
  <path
     id="path3355"
     style="color:#000000;font-style:normal;font-variant:normal;font-weight:normal;font-stretch:normal;font-size:medium;line-height:normal;font-family:sans-serif;text-indent:0;text-align:start;text-decoration:none;text-decoration-line:none;text-decoration-style:solid;text-decoration-color:#000000;letter-spacing:normal;word-spacing:normal;text-transform:none;direction:ltr;block-progression:tb;writing-mode:lr-tb;baseline-shift:baseline;text-anchor:start;white-space:normal;clip-rule:nonzero;display:inline;overflow:visible;visibility:visible;opacity:1;isolation:auto;mix-blend-mode:normal;color-interpolation:sRGB;color-interpolation-filters:linearRGB;solid-color:#000000;solid-opacity:1;fill:#000000;fill-opacity:1;fill-rule:nonzero;stroke:none;stroke-width:2;stroke-linecap:round;stroke-linejoin:round;stroke-miterlimit:4;stroke-dasharray:none;stroke-dashoffset:0;stroke-opacity:1;color-rendering:auto;image-rendering:auto;shape-rendering:auto;text-rendering:auto;enable-background:accumulate"
     d="M 6.984375,-0.01367188 A 1.0001,1.0001 0 0 0 6,1 L 6,2 4,2 C 2.3549904,2 1,3.3549904 1,5 L 1,8.8320312 A 1.0001,1.0001 0 0 0 1,9.1582031 L 1,19 c 0,1.645025 1.3550085,3 3,3 l 14,0 c 1.645007,0 3,-1.354993 3,-3 L 21,9.1679688 A 1.0001,1.0001 0 0 0 21,8.8417969 L 21,5 C 21,3.3550085 19.645025,2 18,2 L 16,2 16,1 A 1.0001,1.0001 0 0 0 14.984375,-0.01367188 1.0001,1.0001 0 0 0 14,1 L 14,2 8,2 8,1 A 1.0001,1.0001 0 0 0 6.984375,-0.01367188 Z M 4,4 6,4 6,5 a 1.0001,1.0001 0 1 0 2,0 l 0,-1 6,0 0,1 a 1.0001,1.0001 0 1 0 2,0 l 0,-1 2,0 c 0.564175,0 1,0.4358515 1,1 L 19,8 3,8 3,5 C 3,4.4358696 3.4358696,4 4,4 Z m -1,6 16,0 0,9 c 0,0.564193 -0.435807,1 -1,1 L 4,20 C 3.4358515,20 3,19.564175 3,19 l 0,-9 z" />
</svg>
