<svg width="84" height="84" viewBox="0 0 84 84" fill="none" xmlns="http://www.w3.org/2000/svg">
<g clip-path="url(#clip0_106_47)">
<path d="M61.9399 14.7155H68.2018C72.3434 14.7155 76.1071 16.4088 78.8336 19.1349C81.5596 21.8609 83.2529 25.6257 83.2529 29.7663V63.6329C83.2529 67.7746 81.56 71.5383 78.8339 74.2643C76.1079 76.9907 72.3434 78.684 68.2018 78.684H15.0508C10.9092 78.684 7.14547 76.9907 4.41944 74.2643C1.69303 71.5383 -0.000244141 67.7746 -0.000244141 63.6329V29.7663C-0.000244141 25.6246 1.69303 21.8605 4.41944 19.1345C7.14547 16.4081 10.9092 14.7155 15.0508 14.7155H21.3131C21.9049 12.7982 23.061 11.1114 24.4831 9.74777C26.9011 7.42778 30.2204 6 32.7904 6H50.4619C53.0318 6 56.3515 7.42778 58.7691 9.74777C60.1908 11.1114 61.347 12.7982 61.9395 14.7155H61.9399ZM41.6263 28.356C46.6906 28.356 51.2778 30.4097 54.5971 33.729C57.9168 37.0487 59.9705 41.6355 59.9705 46.7002C59.9705 51.7644 57.9168 56.3512 54.5971 59.6709C51.277 62.9902 46.6913 65.044 41.6263 65.044C36.5613 65.044 31.9756 62.9902 28.6555 59.6709C25.3362 56.3508 23.2825 51.7648 23.2825 46.7002C23.2825 41.6351 25.3362 37.0491 28.6555 33.729C31.9749 30.4097 36.5621 28.356 41.6263 28.356V28.356ZM50.607 37.7195C48.3094 35.4219 45.134 34.001 41.6263 34.001C38.119 34.001 34.9432 35.4219 32.6456 37.7195C30.3488 40.0171 28.9271 43.1928 28.9271 46.7002C28.9271 50.2071 30.3488 53.3832 32.6456 55.6804C34.9432 57.9776 38.119 59.3993 41.6263 59.3993C45.1333 59.3993 48.3094 57.9776 50.607 55.6804C52.9046 53.3832 54.3255 50.2075 54.3255 46.7002C54.3255 43.1924 52.9046 40.0171 50.607 37.7195V37.7195ZM68.2018 20.3602H59.5466C57.9882 20.3602 56.7245 19.0965 56.7245 17.5381C56.7245 16.1448 55.9424 14.8356 54.8668 13.8043C53.4739 12.4677 51.7199 11.645 50.4623 11.645H32.7907C31.5331 11.645 29.7791 12.4677 28.3862 13.8043C27.3106 14.836 26.5285 16.1448 26.5285 17.5381C26.5285 19.0965 25.2648 20.3602 23.7064 20.3602H15.0512C12.4669 20.3602 10.1154 21.4195 8.40992 23.125C6.70449 24.8308 5.64477 27.1823 5.64477 29.7666V63.6333C5.64477 66.2169 6.70449 68.5692 8.40992 70.2746C10.1157 71.98 12.4673 73.0397 15.0512 73.0397H68.2022C70.7865 73.0397 73.1388 71.98 74.8438 70.2746C76.5496 68.5688 77.6086 66.2176 77.6086 63.6333V29.7666C77.6086 27.183 76.5493 24.8308 74.8435 23.1257C73.1376 21.4199 70.7861 20.3602 68.2022 20.3602H68.2018Z" fill="black"/>
</g>
<defs>
<clipPath id="clip0_106_47">
<rect width="84" height="84" fill="white"/>
</clipPath>
</defs>
</svg>
