<svg width="24" height="24" viewBox="0 0 24 24" fill="none" xmlns="http://www.w3.org/2000/svg">
<g clip-path="url(#clip0_23_1033)">
<path d="M14.625 1.3875C14.7141 1.24219 14.7656 1.07344 14.7656 0.890625C14.7656 0.375 14.3437 -0.046875 13.8281 -0.046875H10.2187C9.70312 -0.046875 9.28125 0.375 9.28125 0.890625C9.28125 1.06406 9.32812 1.22344 9.4125 1.36406C7.33125 1.8375 5.41875 2.8875 3.87187 4.43437C1.70625 6.6 0.515625 9.47344 0.515625 12.5344C0.515625 15.5953 1.70625 18.4734 3.87187 20.6391C6.03281 22.8 8.90625 24 11.9672 24C15.0281 24 17.9016 22.8 20.0672 20.6391C22.2328 18.4734 23.4234 15.5906 23.4234 12.5344C23.4234 9.47344 22.2328 6.6 20.0672 4.43437C18.5437 2.91094 16.6687 1.87031 14.625 1.3875ZM18.7406 19.3078C16.9312 21.1172 14.5266 22.1156 11.9672 22.1156C6.68437 22.1156 2.38594 17.8172 2.38594 12.5344C2.38594 9.975 3.38438 7.57031 5.19375 5.76094C7.00312 3.94688 9.40781 2.95312 11.9672 2.95312C17.25 2.95312 21.5484 7.25156 21.5484 12.5344C21.5484 15.0891 20.55 17.4984 18.7406 19.3078Z" fill="black"/>
<path d="M17.8828 13.1251H12.6094V7.94542C12.6094 7.43448 12.2109 6.99854 11.7047 6.98448C11.1703 6.96573 10.7344 7.39229 10.7344 7.92198V14.2032C10.7344 14.6439 11.0906 15.0001 11.5312 15.0001H17.9062C18.4359 15.0001 18.8625 14.5642 18.8438 14.0298C18.825 13.5235 18.3891 13.1251 17.8828 13.1251Z" fill="black"/>
</g>
<defs>
<clipPath id="clip0_23_1033">
<rect width="24" height="24" fill="white"/>
</clipPath>
</defs>
</svg>
