<svg width="24" height="24" viewBox="0 0 24 24" fill="none" xmlns="http://www.w3.org/2000/svg">
<path d="M19.27 4.68C19.0417 4.51551 18.7779 4.40715 18.4999 4.36372C18.2219 4.32028 17.9376 4.34299 17.67 4.43C16.9642 4.62849 16.2331 4.72281 15.5 4.71C14.4166 4.65119 13.3543 4.38647 12.37 3.93C11.154 3.36763 9.83875 3.05156 8.50002 3C5.61002 3 4.50002 4 4.30002 4.14C4.20433 4.23379 4.12846 4.34586 4.07692 4.46954C4.02539 4.59323 3.99923 4.72601 4.00002 4.86V20C4.00002 20.2652 4.10537 20.5196 4.29291 20.7071C4.48045 20.8946 4.7348 21 5.00002 21C5.26523 21 5.51959 20.8946 5.70712 20.7071C5.89466 20.5196 6.00002 20.2652 6.00002 20V15.7C6.79685 15.3949 7.64748 15.2554 8.50002 15.29C9.58343 15.3488 10.6457 15.6135 11.63 16.07C12.846 16.6324 14.1613 16.9484 15.5 17C16.7055 17.0455 17.9047 16.8057 19 16.3C19.2952 16.1613 19.5455 15.9425 19.7223 15.6684C19.8991 15.3944 19.9954 15.0761 20 14.75V6.11C19.9997 5.83097 19.9333 5.55598 19.8065 5.30747C19.6796 5.05895 19.4958 4.84395 19.27 4.68V4.68ZM18 14.59C17.2029 14.894 16.3525 15.0335 15.5 15C14.4153 14.9425 13.3521 14.6742 12.37 14.21C11.1517 13.6558 9.8374 13.3433 8.50002 13.29C7.65752 13.2755 6.81682 13.373 6.00002 13.58V5.42C6.79498 5.10734 7.64652 4.96428 8.50002 5C9.58477 5.05748 10.6479 5.32582 11.63 5.79C12.8483 6.34425 14.1626 6.6567 15.5 6.71C16.343 6.72245 17.1839 6.62154 18 6.41V14.59Z" fill="black"/>
</svg>
