<svg width="24" height="24" viewBox="0 0 24 24" fill="none" xmlns="http://www.w3.org/2000/svg">
<path d="M14.4999 4H14.5049ZM14.4999 4L11.9999 10L16.9999 12.898L9.49993 20L11.9999 14L6.99993 11.1L14.4999 4ZM14.4999 2C13.9871 2.00231 13.4942 2.19925 13.1209 2.551L5.62393 9.646C5.39794 9.86008 5.2251 10.124 5.11919 10.4167C5.01328 10.7095 4.97724 11.0229 5.01393 11.332C5.08593 11.958 5.45093 12.514 5.99593 12.83L9.47793 14.851L7.65193 19.232C7.52589 19.5361 7.47672 19.8665 7.50878 20.1941C7.54084 20.5217 7.65315 20.8363 7.83575 21.1102C8.01836 21.3841 8.26564 21.6087 8.55573 21.7642C8.84582 21.9198 9.16977 22.0015 9.49893 22.002C9.99693 22.002 10.4919 21.816 10.8739 21.454L18.3739 14.351C18.6 14.1372 18.7729 13.8734 18.8788 13.5808C18.9847 13.2883 19.0207 12.975 18.9839 12.666C18.948 12.3571 18.8406 12.0609 18.6701 11.8009C18.4996 11.5408 18.2708 11.3241 18.0019 11.168L14.5199 9.15L16.3089 4.857C16.4536 4.55201 16.5187 4.21537 16.4981 3.87845C16.4776 3.54152 16.3722 3.21527 16.1916 2.93008C16.011 2.64489 15.7612 2.41005 15.4654 2.24742C15.1696 2.08479 14.8375 1.99968 14.4999 2Z" fill="black"/>
</svg>
