<?xml version="1.0" encoding="UTF-8" standalone="no"?>
<svg
   xmlns:dc="http://purl.org/dc/elements/1.1/"
   xmlns:cc="http://creativecommons.org/ns#"
   xmlns:rdf="http://www.w3.org/1999/02/22-rdf-syntax-ns#"
   xmlns:svg="http://www.w3.org/2000/svg"
   xmlns="http://www.w3.org/2000/svg"
   xmlns:sodipodi="http://sodipodi.sourceforge.net/DTD/sodipodi-0.dtd"
   xmlns:inkscape="http://www.inkscape.org/namespaces/inkscape"
   width="24"
   height="24"
   viewBox="0 0 24 24"
   id="svg3336"
   version="1.1"
   inkscape:version="0.91 r13725"
   sodipodi:docname="home.svg">
  <metadata
     id="metadata3344">
    <rdf:RDF>
      <cc:Work
         rdf:about="">
        <dc:format>image/svg+xml</dc:format>
        <dc:type
           rdf:resource="http://purl.org/dc/dcmitype/StillImage" />
        <dc:title></dc:title>
      </cc:Work>
    </rdf:RDF>
  </metadata>
  <defs
     id="defs3342" />
  <sodipodi:namedview
     pagecolor="#ffffff"
     bordercolor="#666666"
     borderopacity="1"
     objecttolerance="10"
     gridtolerance="10"
     guidetolerance="10"
     inkscape:pageopacity="0"
     inkscape:pageshadow="2"
     inkscape:window-width="1920"
     inkscape:window-height="1057"
     id="namedview3340"
     showgrid="false"
     inkscape:zoom="36.75"
     inkscape:cx="12"
     inkscape:cy="12"
     inkscape:window-x="-8"
     inkscape:window-y="-8"
     inkscape:window-maximized="1"
     inkscape:current-layer="svg3336" />
  <path
     id="path3338"
     style="color:#000000;font-style:normal;font-variant:normal;font-weight:normal;font-stretch:normal;font-size:medium;line-height:normal;font-family:sans-serif;text-indent:0;text-align:start;text-decoration:none;text-decoration-line:none;text-decoration-style:solid;text-decoration-color:#000000;letter-spacing:normal;word-spacing:normal;text-transform:none;direction:ltr;block-progression:tb;writing-mode:lr-tb;baseline-shift:baseline;text-anchor:start;white-space:normal;clip-rule:nonzero;display:inline;overflow:visible;visibility:visible;opacity:1;isolation:auto;mix-blend-mode:normal;color-interpolation:sRGB;color-interpolation-filters:linearRGB;solid-color:#000000;solid-opacity:1;fill:#200e32;fill-opacity:1;fill-rule:nonzero;stroke:none;stroke-width:1.5;stroke-linecap:round;stroke-linejoin:round;stroke-miterlimit:4;stroke-dasharray:none;stroke-dashoffset:0;stroke-opacity:1;color-rendering:auto;image-rendering:auto;shape-rendering:auto;text-rendering:auto;enable-background:accumulate"
     d="m 11.986328,1.2519531 c -0.863029,0 -1.727484,0.2813741 -2.439453,0.8457031 a 0.750075,0.750075 0 0 0 -0.00195,0.00195 L 2.9921875,7.3574219 3.0097656,7.3457031 C 2.2269173,7.938897 1.759685,8.8595155 1.75,9.8398438 a 0.750075,0.750075 0 0 0 0,0.00781 l 0,8.7148438 c 0,2.308274 1.903345,4.1875 4.2226562,4.1875 l 1.9238282,0 c 0.8616289,0 1.4756051,-0.626115 1.7480468,-1.400391 A 0.750075,0.750075 0 0 0 9.90625,20.771484 l 0,-3.066406 c -8.5e-6,-0.372397 0.291302,-0.667341 0.679688,-0.669922 l 2.880859,0 c 0.39038,0 0.683594,0.295613 0.683594,0.669922 l 0,3.076172 c -2.96e-4,1.065493 0.871674,1.944058 1.935547,1.96875 a 0.750075,0.750075 0 0 0 0.01758,0 l 1.923828,0 c 2.21554,0 4.002233,-1.730882 4.162109,-3.896484 A 0.750075,0.750075 0 0 0 22.25,18.5625 l 0,-8.7246094 a 0.750075,0.750075 0 0 0 0,-0.00977 C 22.236595,8.8504893 21.772646,7.932443 20.994141,7.3378906 l -6.56836,-5.2382812 a 0.750075,0.750075 0 0 0 -0.002,-0.00195 C 13.711906,1.5333241 12.849357,1.2519531 11.986328,1.2519531 Z m 0,1.4960938 c 0.532729,0 1.065041,0.1759848 1.50586,0.5253906 l 6.578124,5.2460937 a 0.750075,0.750075 0 0 0 0.01172,0.00977 C 20.498525,8.8473737 20.74292,9.3312801 20.75,9.8476562 l 0,8.7148438 c 0,1.489422 -1.205895,2.6875 -2.722656,2.6875 l -1.90625,0 c -0.273692,-0.0064 -0.470775,-0.209696 -0.470703,-0.46875 l 0,-3.076172 c 0,-1.193161 -0.990664,-2.169922 -2.183594,-2.169922 l -2.886719,0 a 0.750075,0.750075 0 0 0 -0.0039,0 c -1.1874061,0.0079 -2.169949,0.982257 -2.169922,2.169922 l 0,2.90625 a 0.750075,0.750075 0 0 0 -0.017578,0.160156 c 0,0.26911 -0.2080704,0.478516 -0.4921875,0.478516 l -1.9238282,0 C 4.4558894,21.25 3.25,20.051922 3.25,18.5625 l 0,-8.7070312 C 3.25509,9.3404108 3.4973774,8.8567538 3.9140625,8.5410156 a 0.750075,0.750075 0 0 0 0.017578,-0.013672 L 10.478516,3.2734375 c 0.440817,-0.3494058 0.975083,-0.5253906 1.507812,-0.5253906 z" />
</svg>
