<svg width="18" height="19" viewBox="0 0 18 19" fill="none" xmlns="http://www.w3.org/2000/svg">
<path d="M9 0.5C7.21997 0.5 5.47991 1.02784 3.99987 2.01677C2.51983 3.00571 1.36628 4.41131 0.685088 6.05585C0.00389957 7.70038 -0.17433 9.50998 0.172937 11.2558C0.520204 13.0016 1.37737 14.6053 2.63604 15.864C3.89472 17.1226 5.49836 17.9798 7.24419 18.3271C8.99002 18.6743 10.7996 18.4961 12.4442 17.8149C14.0887 17.1337 15.4943 15.9802 16.4832 14.5001C17.4722 13.0201 18 11.28 18 9.5C18 7.11305 17.0518 4.82387 15.364 3.13604C13.6761 1.44821 11.387 0.5 9 0.5ZM9 17C7.51664 17 6.0666 16.5601 4.83323 15.736C3.59986 14.9119 2.63856 13.7406 2.07091 12.3701C1.50325 10.9997 1.35473 9.49168 1.64411 8.03682C1.9335 6.58197 2.64781 5.24559 3.6967 4.1967C4.7456 3.14781 6.08197 2.4335 7.53683 2.14411C8.99168 1.85472 10.4997 2.00325 11.8701 2.5709C13.2406 3.13856 14.4119 4.09985 15.236 5.33322C16.0601 6.56659 16.5 8.01664 16.5 9.5C16.5 11.4891 15.7098 13.3968 14.3033 14.8033C12.8968 16.2098 10.9891 17 9 17Z" fill="#231F20"/>
<path d="M8.99999 7.77498C8.80108 7.77498 8.61031 7.854 8.46966 7.99465C8.32901 8.1353 8.24999 8.32607 8.24999 8.52498V13.625C8.24999 13.8239 8.32901 14.0147 8.46966 14.1553C8.61031 14.296 8.80108 14.375 8.99999 14.375C9.1989 14.375 9.38967 14.296 9.53032 14.1553C9.67097 14.0147 9.74999 13.8239 9.74999 13.625V8.52498C9.74999 8.32607 9.67097 8.1353 9.53032 7.99465C9.38967 7.854 9.1989 7.77498 8.99999 7.77498ZM8.99999 4.69998C8.79695 4.70762 8.60455 4.7927 8.46228 4.93775C8.32001 5.08281 8.23868 5.27684 8.23499 5.47998V5.59998C8.23463 5.69784 8.25466 5.79469 8.29378 5.88439C8.3329 5.97408 8.39026 6.05465 8.46222 6.12097C8.53418 6.18728 8.61915 6.23789 8.71174 6.26957C8.80432 6.30125 8.90249 6.31331 8.99999 6.30498C9.19653 6.29756 9.38301 6.21616 9.52209 6.07708C9.66117 5.93801 9.74257 5.75152 9.74999 5.55498V5.37498C9.75058 5.27966 9.73098 5.18529 9.69246 5.0981C9.65395 5.0109 9.59741 4.93285 9.52655 4.86908C9.4557 4.80531 9.37214 4.75727 9.28138 4.72813C9.19063 4.69898 9.09472 4.68939 8.99999 4.69998Z" fill="#231F20"/>
</svg>
