<svg width="32" height="32" viewBox="0 0 32 32" fill="none" xmlns="http://www.w3.org/2000/svg">
<path d="M16 30C16.2256 29.9987 16.4441 29.9212 16.62 29.78C17 29.44 27 21.38 27 13C27 10.0826 25.8411 7.28473 23.7782 5.22183C21.7153 3.15893 18.9174 2 16 2C13.0826 2 10.2847 3.15893 8.22183 5.22183C6.15893 7.28473 5 10.0826 5 13C5 21.38 15 29.44 15.38 29.78C15.5559 29.9212 15.7744 29.9987 16 30ZM7 13C7 10.6131 7.94821 8.32387 9.63604 6.63604C11.3239 4.94821 13.6131 4 16 4C18.3869 4 20.6761 4.94821 22.364 6.63604C24.0518 8.32387 25 10.6131 25 13C25 19.3 18.13 25.81 16 27.69C13.87 25.81 7 19.3 7 13Z" fill="black"/>
<path d="M21 13C21 12.0111 20.7068 11.0444 20.1574 10.2222C19.6079 9.39991 18.8271 8.75904 17.9134 8.3806C16.9998 8.00217 15.9945 7.90315 15.0246 8.09608C14.0546 8.289 13.1637 8.76521 12.4645 9.46447C11.7652 10.1637 11.289 11.0546 11.0961 12.0246C10.9031 12.9945 11.0022 13.9998 11.3806 14.9134C11.759 15.8271 12.3999 16.6079 13.2222 17.1574C14.0444 17.7068 15.0111 18 16 18C17.3261 18 18.5979 17.4732 19.5355 16.5355C20.4732 15.5979 21 14.3261 21 13ZM13 13C13 12.4067 13.1759 11.8266 13.5056 11.3333C13.8352 10.8399 14.3038 10.4554 14.852 10.2284C15.4001 10.0013 16.0033 9.94189 16.5853 10.0576C17.1672 10.1734 17.7018 10.4591 18.1213 10.8787C18.5409 11.2982 18.8266 11.8328 18.9424 12.4147C19.0581 12.9967 18.9987 13.5999 18.7716 14.1481C18.5446 14.6962 18.1601 15.1648 17.6667 15.4944C17.1734 15.8241 16.5933 16 16 16C15.2044 16 14.4413 15.6839 13.8787 15.1213C13.3161 14.5587 13 13.7957 13 13Z" fill="black"/>
</svg>
