<svg width="32" height="32" viewBox="0 0 32 32" fill="none" xmlns="http://www.w3.org/2000/svg">
<path d="M16 17.3332C15.5941 17.3284 15.1964 17.4482 14.8606 17.6762C14.5248 17.9043 14.2669 18.2298 14.1216 18.6089C13.9764 18.988 13.9508 19.4025 14.0482 19.7966C14.1457 20.1907 14.3615 20.5455 14.6667 20.8132V22.6665C14.6667 23.0201 14.8072 23.3593 15.0572 23.6093C15.3073 23.8594 15.6464 23.9998 16 23.9998C16.3536 23.9998 16.6928 23.8594 16.9428 23.6093C17.1929 23.3593 17.3333 23.0201 17.3333 22.6665V20.8132C17.6385 20.5455 17.8544 20.1907 17.9518 19.7966C18.0493 19.4025 18.0236 18.988 17.8784 18.6089C17.7331 18.2298 17.4753 17.9043 17.1394 17.6762C16.8036 17.4482 16.4059 17.3284 16 17.3332ZM22.6667 11.9998V9.33317C22.6667 7.56506 21.9643 5.86937 20.7141 4.61913C19.4638 3.36888 17.7681 2.6665 16 2.6665C14.2319 2.6665 12.5362 3.36888 11.286 4.61913C10.0357 5.86937 9.33334 7.56506 9.33334 9.33317V11.9998C8.27248 11.9998 7.25506 12.4213 6.50492 13.1714C5.75477 13.9216 5.33334 14.939 5.33334 15.9998V25.3332C5.33334 26.394 5.75477 27.4115 6.50492 28.1616C7.25506 28.9117 8.27248 29.3332 9.33334 29.3332H22.6667C23.7275 29.3332 24.745 28.9117 25.4951 28.1616C26.2453 27.4115 26.6667 26.394 26.6667 25.3332V15.9998C26.6667 14.939 26.2453 13.9216 25.4951 13.1714C24.745 12.4213 23.7275 11.9998 22.6667 11.9998ZM12 9.33317C12 8.2723 12.4214 7.25489 13.1716 6.50474C13.9217 5.7546 14.9391 5.33317 16 5.33317C17.0609 5.33317 18.0783 5.7546 18.8284 6.50474C19.5786 7.25489 20 8.2723 20 9.33317V11.9998H12V9.33317ZM24 25.3332C24 25.6868 23.8595 26.0259 23.6095 26.276C23.3594 26.526 23.0203 26.6665 22.6667 26.6665H9.33334C8.97972 26.6665 8.64058 26.526 8.39053 26.276C8.14049 26.0259 8.00001 25.6868 8.00001 25.3332V15.9998C8.00001 15.6462 8.14049 15.3071 8.39053 15.057C8.64058 14.807 8.97972 14.6665 9.33334 14.6665H22.6667C23.0203 14.6665 23.3594 14.807 23.6095 15.057C23.8595 15.3071 24 15.6462 24 15.9998V25.3332Z" fill="black"/>
</svg>
