<?xml version="1.0" encoding="UTF-8" standalone="no"?>
<svg
   xmlns:dc="http://purl.org/dc/elements/1.1/"
   xmlns:cc="http://creativecommons.org/ns#"
   xmlns:rdf="http://www.w3.org/1999/02/22-rdf-syntax-ns#"
   xmlns:svg="http://www.w3.org/2000/svg"
   xmlns="http://www.w3.org/2000/svg"
   xmlns:sodipodi="http://sodipodi.sourceforge.net/DTD/sodipodi-0.dtd"
   xmlns:inkscape="http://www.inkscape.org/namespaces/inkscape"
   width="25"
   height="24"
   viewBox="0 0 25 24"
   fill="none"
   id="svg3380"
   version="1.1"
   inkscape:version="0.91 r13725"
   sodipodi:docname="notification.svg">
  <metadata
     id="metadata3388">
    <rdf:RDF>
      <cc:Work
         rdf:about="">
        <dc:format>image/svg+xml</dc:format>
        <dc:type
           rdf:resource="http://purl.org/dc/dcmitype/StillImage" />
        <dc:title></dc:title>
      </cc:Work>
    </rdf:RDF>
  </metadata>
  <defs
     id="defs3386" />
  <sodipodi:namedview
     pagecolor="#ffffff"
     bordercolor="#666666"
     borderopacity="1"
     objecttolerance="10"
     gridtolerance="10"
     guidetolerance="10"
     inkscape:pageopacity="0"
     inkscape:pageshadow="2"
     inkscape:window-width="1920"
     inkscape:window-height="1057"
     id="namedview3384"
     showgrid="false"
     inkscape:zoom="9.8333333"
     inkscape:cx="12.5"
     inkscape:cy="12"
     inkscape:window-x="-8"
     inkscape:window-y="-8"
     inkscape:window-maximized="1"
     inkscape:current-layer="svg3380" />
  <path
     id="path3382"
     style="color:#000000;font-style:normal;font-variant:normal;font-weight:normal;font-stretch:normal;font-size:medium;line-height:normal;font-family:sans-serif;text-indent:0;text-align:start;text-decoration:none;text-decoration-line:none;text-decoration-style:solid;text-decoration-color:#000000;letter-spacing:normal;word-spacing:normal;text-transform:none;direction:ltr;block-progression:tb;writing-mode:lr-tb;baseline-shift:baseline;text-anchor:start;white-space:normal;clip-rule:nonzero;display:inline;overflow:visible;visibility:visible;opacity:1;isolation:auto;mix-blend-mode:normal;color-interpolation:sRGB;color-interpolation-filters:linearRGB;solid-color:#000000;solid-opacity:1;fill:#200e32;fill-opacity:1;fill-rule:nonzero;stroke:none;stroke-width:1.5;stroke-linecap:round;stroke-linejoin:round;stroke-miterlimit:4;stroke-dasharray:none;stroke-dashoffset:0;stroke-opacity:1;color-rendering:auto;image-rendering:auto;shape-rendering:auto;text-rendering:auto;enable-background:accumulate"
     d="m 12.626953,1.25 c -3.4877503,0 -7.0100048,2.4428545 -7.3535155,6.1074219 a 0.750075,0.750075 0 0 0 0,0.00391 C 5.215258,8.027445 5.2169144,8.6780356 5.2167969,9.3066406 5.0627865,10.025005 4.7233543,10.693772 4.21875,11.240234 a 0.750075,0.750075 0 0 0 -0.074219,0.09375 c -0.4362509,0.65469 -0.6877021,1.413649 -0.7265624,2.197266 a 0.750075,0.750075 0 0 0 0,0.03711 l 0,0.203125 c -0.02247,1.046699 0.334633,2.066565 1.0058593,2.875 a 0.750075,0.750075 0 0 0 0.037109,0.04102 c 0.8739572,0.908832 2.050696,1.473439 3.3125,1.595703 0.00129,1.39e-4 0.00261,-1.39e-4 0.00391,0 3.2454322,0.347882 6.5202292,0.347744 9.7656252,0 1.266581,-0.116695 2.447262,-0.682226 3.320312,-1.597656 a 0.750075,0.750075 0 0 0 0.03125,-0.03516 c 0.683,-0.809223 1.047777,-1.836021 1.021485,-2.890625 l 0,-0.191407 a 0.750075,0.750075 0 0 0 -0.002,-0.0332 c -0.03536,-0.78419 -0.286928,-1.545363 -0.728515,-2.197265 a 0.750075,0.750075 0 0 0 -0.06836,-0.08399 c -0.504546,-0.55246 -0.843479,-1.226749 -1,-1.9492185 -0.03399,-0.5711668 0.01448,-1.2183535 -0.04883,-1.9433594 a 0.750075,0.750075 0 0 0 0,-0.00586 C 19.714031,3.6923105 16.192829,1.25 12.705078,1.25 l -0.07813,0 z m 0,1.5 0.07813,0 c 2.777713,0 5.598991,1.9933644 5.869141,4.7441406 0.05035,0.5791312 -0.0054,1.2504116 0.04883,1.9960938 a 0.750075,0.750075 0 0 0 0.01367,0.099609 c 0.20254,0.9645142 0.658047,1.8580342 1.3125,2.5996092 0.283416,0.422116 0.444124,0.90928 0.466797,1.412109 l 0,0.175782 a 0.750075,0.750075 0 0 0 0,0.01953 c 0.01691,0.678358 -0.22111,1.33625 -0.660157,1.865234 -0.619353,0.639999 -1.454055,1.04693 -2.355468,1.128907 a 0.750075,0.750075 0 0 0 -0.01172,0.002 c -3.142203,0.337093 -6.312824,0.337093 -9.4550782,0 a 0.750075,0.750075 0 0 0 -0.00781,-0.002 C 7.0240694,16.705362 6.1911958,16.297963 5.5683594,15.660156 5.1376564,15.130357 4.9034921,14.477087 4.9179688,13.802734 a 0.750075,0.750075 0 0 0 0,-0.01563 l 0,-0.1875 c 0.02627,-0.507079 0.1876217,-0.99813 0.4707031,-1.425781 0.00161,-0.0024 0.00229,-0.0054 0.00391,-0.0078 0.6509873,-0.734865 1.1057714,-1.619914 1.3046875,-2.5781254 a 0.750075,0.750075 0 0 0 0.015625,-0.1523437 c 0,-0.6651414 6.26e-4,-1.3178989 0.054687,-1.9394531 l 0,-0.00391 C 7.0278576,4.7415118 9.8483886,2.75 12.626953,2.75 Z m -2.402344,17.34375 a 0.750075,0.750075 0 0 0 -0.5898434,1.224609 c 0.6239274,0.783159 1.5378884,1.286735 2.5371094,1.404297 0.997599,0.117387 2.000607,-0.158735 2.792969,-0.771484 0.243444,-0.182328 0.463943,-0.392277 0.654297,-0.628906 a 0.75082698,0.75082698 0 0 0 -1.169922,-0.941407 c -0.112309,0.139611 -0.241625,0.266848 -0.386719,0.375 a 0.750075,0.750075 0 0 0 -0.01172,0.0078 c -0.479295,0.371546 -1.094554,0.542543 -1.705078,0.470703 -0.610579,-0.07184 -1.162636,-0.379568 -1.537109,-0.849609 A 0.750075,0.750075 0 0 0 10.224609,20.09375 Z" />
</svg>
