<svg width="32" height="32" viewBox="0 0 32 32" fill="none" xmlns="http://www.w3.org/2000/svg">
<path d="M28.4038 3.59629C27.6159 2.81371 26.5505 2.37451 25.44 2.37451C24.3295 2.37451 23.2641 2.81371 22.4762 3.59629L4.36573 21.7068C4.19586 21.8822 4.08413 22.1056 4.04573 22.3468L3.27621 27.4287C3.25095 27.5915 3.26118 27.7578 3.30622 27.9163C3.35125 28.0748 3.43002 28.2217 3.53712 28.3468C3.64422 28.472 3.77713 28.5726 3.92672 28.6416C4.07632 28.7107 4.23907 28.7465 4.40383 28.7468H4.57907L9.65335 27.9849C9.89449 27.9465 10.118 27.8347 10.2934 27.6649L28.4038 9.52391C29.1864 8.73602 29.6256 7.67059 29.6256 6.5601C29.6256 5.44961 29.1864 4.38418 28.4038 3.59629ZM8.94478 25.7525L5.76764 26.2325L6.24764 23.0553L21.12 8.19058L23.8095 10.8801L8.94478 25.7525ZM26.7886 7.90867L24.8914 9.80581L22.1943 7.10867L24.0914 5.21153C24.2685 5.03443 24.4788 4.89395 24.7102 4.79811C24.9416 4.70226 25.1896 4.65293 25.44 4.65293C25.6905 4.65293 25.9385 4.70226 26.1699 4.79811C26.4012 4.89395 26.6115 5.03443 26.7886 5.21153C26.9657 5.38863 27.1062 5.59887 27.202 5.83026C27.2979 6.06165 27.3472 6.30965 27.3472 6.5601C27.3472 6.81055 27.2979 7.05855 27.202 7.28994C27.1062 7.52133 26.9657 7.73158 26.7886 7.90867Z" fill="#231F20"/>
</svg>
