<?xml version="1.0" encoding="UTF-8" standalone="no"?>
<svg
   xmlns:dc="http://purl.org/dc/elements/1.1/"
   xmlns:cc="http://creativecommons.org/ns#"
   xmlns:rdf="http://www.w3.org/1999/02/22-rdf-syntax-ns#"
   xmlns:svg="http://www.w3.org/2000/svg"
   xmlns="http://www.w3.org/2000/svg"
   xmlns:sodipodi="http://sodipodi.sourceforge.net/DTD/sodipodi-0.dtd"
   xmlns:inkscape="http://www.inkscape.org/namespaces/inkscape"
   width="24"
   height="24"
   viewBox="0 0 24 24"
   fill="none"
   id="svg3394"
   version="1.1"
   inkscape:version="0.91 r13725"
   sodipodi:docname="profile.svg">
  <metadata
     id="metadata3404">
    <rdf:RDF>
      <cc:Work
         rdf:about="">
        <dc:format>image/svg+xml</dc:format>
        <dc:type
           rdf:resource="http://purl.org/dc/dcmitype/StillImage" />
        <dc:title></dc:title>
      </cc:Work>
    </rdf:RDF>
  </metadata>
  <defs
     id="defs3402" />
  <sodipodi:namedview
     pagecolor="#ffffff"
     bordercolor="#666666"
     borderopacity="1"
     objecttolerance="10"
     gridtolerance="10"
     guidetolerance="10"
     inkscape:pageopacity="0"
     inkscape:pageshadow="2"
     inkscape:window-width="1920"
     inkscape:window-height="1057"
     id="namedview3400"
     showgrid="false"
     inkscape:zoom="9.8333333"
     inkscape:cx="12"
     inkscape:cy="12"
     inkscape:window-x="-8"
     inkscape:window-y="-8"
     inkscape:window-maximized="1"
     inkscape:current-layer="svg3394" />
  <path
     id="path3396"
     style="color:#000000;font-style:normal;font-variant:normal;font-weight:normal;font-stretch:normal;font-size:medium;line-height:normal;font-family:sans-serif;text-indent:0;text-align:start;text-decoration:none;text-decoration-line:none;text-decoration-style:solid;text-decoration-color:#000000;letter-spacing:normal;word-spacing:normal;text-transform:none;direction:ltr;block-progression:tb;writing-mode:lr-tb;baseline-shift:baseline;text-anchor:start;white-space:normal;clip-rule:nonzero;display:inline;overflow:visible;visibility:visible;opacity:1;isolation:auto;mix-blend-mode:normal;color-interpolation:sRGB;color-interpolation-filters:linearRGB;solid-color:#000000;solid-opacity:1;fill:#200e32;fill-opacity:1;fill-rule:nonzero;stroke:none;stroke-width:1.5;stroke-linecap:round;stroke-linejoin:round;stroke-miterlimit:4;stroke-dasharray:none;stroke-dashoffset:0;stroke-opacity:1;color-rendering:auto;image-rendering:auto;shape-rendering:auto;text-rendering:auto;enable-background:accumulate"
     d="m 11.578125,1.75 c -3.0441235,0 -5.5273438,2.4831949 -5.5273438,5.5273438 0,3.0441492 2.4832203,5.5292972 5.5273438,5.5292972 3.044132,0 5.529297,-2.485145 5.529297,-5.5292972 C 17.107422,4.2331911 14.622257,1.75 11.578125,1.75 Z m 0,1.5 c 2.233468,0 4.029297,1.7938564 4.029297,4.0273438 0,2.2334873 -1.795829,4.0292972 -4.029297,4.0292972 -2.2334565,0 -4.0273438,-1.7958061 -4.0273438,-4.0292972 C 7.5507812,5.0438526 9.3446685,3.25 11.578125,3.25 Z m -0.0039,11.685547 c -0.753327,0 -1.506625,0.03364 -2.2578128,0.09961 -0.8164525,0.05723 -1.627224,0.171268 -2.4277343,0.341797 -1.1676306,0.239538 -2.6773645,0.694486 -3.3398438,2.019531 a 0.750075,0.750075 0 0 0 -0.00391,0.0098 C 3.3497504,17.811181 3.2483002,18.255495 3.25,18.705078 c -2.45e-5,0.448881 0.1006242,0.891242 0.2929688,1.296875 a 0.750075,0.750075 0 0 0 0.00195,0.0059 c 0.662194,1.363341 2.1910779,1.790622 3.3535156,2.017579 0.00184,3.58e-4 0.00402,0.0016 0.00586,0.002 0.767203,0.171075 1.5462877,0.280004 2.3300781,0.33789 0.00295,5.9e-4 0.00487,-5.8e-4 0.00781,0 0.3509535,0.06912 0.6590423,0.0685 0.9257815,0.06836 1.220501,0.06521 2.444358,0.04655 3.662109,-0.05664 0.817522,-0.05637 1.629578,-0.174201 2.429688,-0.351562 1.152225,-0.226865 2.691877,-0.64855 3.345703,-2.021485 a 0.750075,0.750075 0 0 0 0,-0.002 c 0.389966,-0.820086 0.389966,-1.773664 0,-2.59375 -0.654862,-1.37511 -2.19816,-1.795826 -3.345703,-2.03125 -0.800272,-0.169829 -1.611718,-0.28398 -2.427735,-0.341797 -0.75113,-0.06597 -1.504486,-0.09961 -2.257812,-0.09961 z m 0,1.5 c 0.709726,0 1.419484,0.03162 2.126953,0.09375 a 0.750075,0.750075 0 0 0 0.01367,0 c 0.752999,0.05276 1.499903,0.157506 2.238281,0.314453 a 0.750075,0.750075 0 0 0 0.0059,0.002 c 0.994257,0.203976 2.032431,0.659941 2.292969,1.207031 0.19634,0.412896 0.195753,0.891599 0,1.304688 -0.260538,0.54709 -1.298126,1.00482 -2.287109,1.199219 a 0.750075,0.750075 0 0 0 -0.01758,0.0039 c -0.734656,0.1635 -1.481551,0.271033 -2.232422,0.322265 a 0.750075,0.750075 0 0 0 -0.01172,0 c -1.152753,0.09768 -2.311584,0.114977 -3.466797,0.05273 a 0.750075,0.750075 0 0 0 -0.03906,0 c -0.2745708,0 -0.4844846,-0.0043 -0.6679691,-0.04102 a 0.750075,0.750075 0 0 0 -0.095703,-0.01172 C 8.686178,20.832165 7.9437578,20.724465 7.2128906,20.560547 a 0.750075,0.750075 0 0 0 -0.021484,-0.0059 C 6.1943362,20.360408 5.1649302,19.910219 4.8945312,19.353516 4.7989665,19.149839 4.7497007,18.928448 4.75,18.703125 a 0.750075,0.750075 0 0 0 0,-0.0039 c -8.299e-4,-0.219501 0.048385,-0.43652 0.1425781,-0.634766 0.2542639,-0.50526 1.3236341,-1.019091 2.296875,-1.21875 a 0.750075,0.750075 0 0 0 0.00586,-0.002 c 0.737858,-0.157438 1.4856019,-0.262291 2.2382813,-0.314453 a 0.750075,0.750075 0 0 0 0.013672,0 c 0.7075324,-0.06213 1.4172274,-0.09375 2.1269534,-0.09375 z" />
</svg>
