<svg width="24" height="24" viewBox="0 0 24 24" fill="none" xmlns="http://www.w3.org/2000/svg">
<path d="M20.25 8.30767H1.91667C1.67355 8.30767 1.44039 8.21042 1.26849 8.0373C1.09658 7.86419 1 7.62941 1 7.38459V2.76921C1 2.52439 1.09658 2.2896 1.26849 2.11649C1.44039 1.94338 1.67355 1.84613 1.91667 1.84613H20.25C20.4931 1.84613 20.7263 1.94338 20.8982 2.11649C21.0701 2.2896 21.1667 2.52439 21.1667 2.76921V7.38459C21.1667 7.62941 21.0701 7.86419 20.8982 8.0373C20.7263 8.21042 20.4931 8.30767 20.25 8.30767ZM2.83333 6.46151H19.3333V3.69228H2.83333V6.46151Z" fill="black"/>
<path d="M16.5833 5.53846C16.3402 5.53846 16.107 5.44121 15.9351 5.2681C15.7632 5.09499 15.6667 4.8602 15.6667 4.61538V0.923077C15.6667 0.678262 15.7632 0.443473 15.9351 0.270363C16.107 0.0972524 16.3402 0 16.5833 0C16.8264 0 17.0596 0.0972524 17.2315 0.270363C17.4034 0.443473 17.5 0.678262 17.5 0.923077V4.61538C17.5 4.8602 17.4034 5.09499 17.2315 5.2681C17.0596 5.44121 16.8264 5.53846 16.5833 5.53846ZM5.58332 5.53846C5.34021 5.53846 5.10705 5.44121 4.93514 5.2681C4.76323 5.09499 4.66666 4.8602 4.66666 4.61538V0.923077C4.66666 0.678262 4.76323 0.443473 4.93514 0.270363C5.10705 0.0972524 5.34021 0 5.58332 0C5.82644 0 6.0596 0.0972524 6.2315 0.270363C6.40341 0.443473 6.49999 0.678262 6.49999 0.923077V4.61538C6.49999 4.8602 6.40341 5.09499 6.2315 5.2681C6.0596 5.44121 5.82644 5.53846 5.58332 5.53846Z" fill="black"/>
<path d="M12 22.1538H3.75C3.02065 22.1538 2.32118 21.8621 1.80546 21.3427C1.28973 20.8234 1 20.119 1 19.3846V2.76921C1 2.52439 1.09658 2.2896 1.26849 2.11649C1.44039 1.94338 1.67355 1.84613 1.91667 1.84613H20.25C20.4931 1.84613 20.7263 1.94338 20.8982 2.11649C21.0701 2.2896 21.1667 2.52439 21.1667 2.76921V12.9231C21.1667 13.1679 21.0701 13.4027 20.8982 13.5758C20.7263 13.7489 20.4931 13.8461 20.25 13.8461C20.0069 13.8461 19.7737 13.7489 19.6018 13.5758C19.4299 13.4027 19.3333 13.1679 19.3333 12.9231V3.69228H2.83333V19.3846C2.83333 19.6294 2.92991 19.8642 3.10182 20.0373C3.27373 20.2104 3.50688 20.3077 3.75 20.3077H12C12.2431 20.3077 12.4763 20.4049 12.6482 20.578C12.8201 20.7511 12.9167 20.9859 12.9167 21.2307C12.9167 21.4756 12.8201 21.7103 12.6482 21.8835C12.4763 22.0566 12.2431 22.1538 12 22.1538Z" fill="black"/>
<path d="M16.5833 24C15.3142 24 14.0736 23.621 13.0184 22.911C11.9632 22.201 11.1408 21.1919 10.6551 20.0112C10.1694 18.8305 10.0424 17.5313 10.29 16.2779C10.5375 15.0244 11.1487 13.8731 12.0461 12.9694C12.9434 12.0658 14.0868 11.4504 15.3315 11.2011C16.5762 10.9517 17.8664 11.0797 19.0389 11.5688C20.2114 12.0578 21.2135 12.886 21.9186 13.9486C22.6237 15.0112 23 16.2605 23 17.5384C23 19.2522 22.324 20.8957 21.1206 22.1074C19.9172 23.3192 18.2851 24 16.5833 24V24ZM16.5833 12.9231C15.6768 12.9231 14.7907 13.1937 14.037 13.7009C13.2832 14.208 12.6958 14.9289 12.3489 15.7722C12.002 16.6156 11.9112 17.5436 12.0881 18.4389C12.2649 19.3342 12.7014 20.1565 13.3424 20.802C13.9834 21.4475 14.8001 21.8871 15.6892 22.0651C16.5782 22.2432 17.4998 22.1518 18.3373 21.8025C19.1748 21.4532 19.8906 20.8616 20.3942 20.1026C20.8978 19.3436 21.1667 18.4513 21.1667 17.5384C21.1667 16.3144 20.6838 15.1404 19.8242 14.2749C18.9647 13.4093 17.7989 12.9231 16.5833 12.9231Z" fill="black"/>
<path d="M19.3333 18.4615H16.5833C16.3402 18.4615 16.107 18.3643 15.9351 18.1912C15.7632 18.018 15.6667 17.7833 15.6667 17.5384V13.8461H17.5V16.6154H19.3333V18.4615Z" fill="black"/>
</svg>
