<?xml version="1.0" encoding="UTF-8" standalone="no"?>
<svg
   xmlns:dc="http://purl.org/dc/elements/1.1/"
   xmlns:cc="http://creativecommons.org/ns#"
   xmlns:rdf="http://www.w3.org/1999/02/22-rdf-syntax-ns#"
   xmlns:svg="http://www.w3.org/2000/svg"
   xmlns="http://www.w3.org/2000/svg"
   xmlns:sodipodi="http://sodipodi.sourceforge.net/DTD/sodipodi-0.dtd"
   xmlns:inkscape="http://www.inkscape.org/namespaces/inkscape"
   width="24"
   height="24"
   viewBox="0 0 24 24"
   fill="none"
   id="svg3430"
   version="1.1"
   inkscape:version="0.91 r13725"
   sodipodi:docname="setting.svg">
  <metadata
     id="metadata3440">
    <rdf:RDF>
      <cc:Work
         rdf:about="">
        <dc:format>image/svg+xml</dc:format>
        <dc:type
           rdf:resource="http://purl.org/dc/dcmitype/StillImage" />
        <dc:title></dc:title>
      </cc:Work>
    </rdf:RDF>
  </metadata>
  <defs
     id="defs3438" />
  <sodipodi:namedview
     pagecolor="#ffffff"
     bordercolor="#666666"
     borderopacity="1"
     objecttolerance="10"
     gridtolerance="10"
     guidetolerance="10"
     inkscape:pageopacity="0"
     inkscape:pageshadow="2"
     inkscape:window-width="1920"
     inkscape:window-height="1057"
     id="namedview3436"
     showgrid="false"
     inkscape:zoom="9.8333333"
     inkscape:cx="12"
     inkscape:cy="12"
     inkscape:window-x="-8"
     inkscape:window-y="-8"
     inkscape:window-maximized="1"
     inkscape:current-layer="svg3430" />
  <path
     id="path3432"
     style="color:#000000;font-style:normal;font-variant:normal;font-weight:normal;font-stretch:normal;font-size:medium;line-height:normal;font-family:sans-serif;text-indent:0;text-align:start;text-decoration:none;text-decoration-line:none;text-decoration-style:solid;text-decoration-color:#000000;letter-spacing:normal;word-spacing:normal;text-transform:none;direction:ltr;block-progression:tb;writing-mode:lr-tb;baseline-shift:baseline;text-anchor:start;white-space:normal;clip-rule:evenodd;display:inline;overflow:visible;visibility:visible;opacity:1;isolation:auto;mix-blend-mode:normal;color-interpolation:sRGB;color-interpolation-filters:linearRGB;solid-color:#000000;solid-opacity:1;fill:#200e32;fill-opacity:1;fill-rule:evenodd;stroke:none;stroke-width:1.5;stroke-linecap:round;stroke-linejoin:round;stroke-miterlimit:4;stroke-dasharray:none;stroke-dashoffset:0;stroke-opacity:1;color-rendering:auto;image-rendering:auto;shape-rendering:auto;text-rendering:auto;enable-background:accumulate"
     d="m 11.542969,1.5273438 c -0.705801,0 -1.383023,0.2829418 -1.8808596,0.7832031 C 9.167029,2.8079686 8.8904181,3.48211 8.890625,4.1835938 8.8793507,4.8243752 8.3712429,5.3218273 7.7304688,5.3242188 7.5416724,5.3215018 7.3558209,5.2721987 7.1933594,5.1757812 a 0.750075,0.750075 0 0 0 -0.00977,-0.00586 C 5.9172891,4.444317 4.2813414,4.8857994 3.5527344,6.1503906 L 2.8945312,7.234375 A 0.750075,0.750075 0 0 0 2.8847656,7.25 c -0.7277548,1.263034 -0.2912769,2.89791 0.96875,3.630859 a 0.750075,0.750075 0 0 0 0.00195,0 c 0.3608358,0.208309 0.5800781,0.59105 0.5800781,1.007813 0,0.416623 -0.2192423,0.799504 -0.5800781,1.007812 a 0.750075,0.750075 0 0 0 -0.00195,0 c -1.2600558,0.728927 -1.6962754,2.362153 -0.96875,3.623047 a 0.750075,0.750075 0 0 0 0,0.002 l 0.625,1.076172 c 0.3433109,0.619471 0.9202718,1.07792 1.6015625,1.271485 0.6812939,0.193705 1.4115071,0.108058 2.0292969,-0.238282 a 0.750075,0.750075 0 0 0 0.011719,-0.0078 c 0.2638851,-0.153993 0.5777455,-0.196193 0.8730468,-0.117188 0.2951886,0.07897 0.545508,0.273745 0.6972656,0.539063 a 0.750075,0.750075 0 0 0 0.00586,0.0098 c 0.097151,0.163669 0.1503654,0.350619 0.1523438,0.541015 C 8.8851835,21.05395 10.083699,22.25 11.542969,22.25 l 1.253906,0 c 1.457036,0 2.657144,-1.193402 2.664063,-2.650391 a 0.750075,0.750075 0 0 0 0,-0.0078 c -0.0015,-0.308478 0.119943,-0.602365 0.33789,-0.820313 0.216434,-0.216433 0.508304,-0.33569 0.814453,-0.335937 0.19356,0.0068 0.382171,0.0583 0.550781,0.154297 1.263014,0.727671 2.897894,0.291282 3.63086,-0.96875 l 0.654297,-1.089844 a 0.750075,0.750075 0 0 0 0.0059,-0.0078 c 0.355429,-0.610125 0.453311,-1.337371 0.271484,-2.019532 -0.181964,-0.682298 -0.630289,-1.265123 -1.242187,-1.617187 -0.266507,-0.153304 -0.45991,-0.406106 -0.539063,-0.703125 -0.07922,-0.29697 -0.03752,-0.613391 0.117188,-0.878906 a 0.750075,0.750075 0 0 0 0.0039,-0.0039 c 0.09963,-0.173977 0.243991,-0.318338 0.417969,-0.417969 a 0.750075,0.750075 0 0 0 0.0059,-0.0039 c 1.201278,-0.702649 1.637039,-2.2217405 1.03711,-3.457031 A 0.750075,0.750075 0 0 0 21.457031,7.25 L 20.833984,6.1699219 C 20.105354,4.9053768 18.469443,4.4619131 17.203125,5.1875 a 0.750075,0.750075 0 0 0 -0.0078,0.00586 C 16.931068,5.3490231 16.615282,5.3915414 16.318359,5.3144531 16.021456,5.2373639 15.768503,5.0459093 15.613281,4.78125 a 0.750075,0.750075 0 0 0 -0.002,-0.00195 c -0.09708,-0.163689 -0.148382,-0.3505957 -0.15039,-0.5410157 l 0,0.029297 C 15.481671,3.5483879 15.208498,2.8498249 14.707031,2.3339844 14.205573,1.8181535 13.516284,1.5270376 12.796875,1.5273438 l -1.253906,0 z m 0,1.5 1.253906,0 c 0.314591,-1.339e-4 0.616596,0.1278865 0.835937,0.3535156 0.219334,0.2256195 0.337191,0.5293001 0.328126,0.84375 a 0.750075,0.750075 0 0 0 0,0.029297 c 0.0048,0.4528272 0.12893,0.897259 0.359374,1.2871094 0,0 0.002,0 0.002,0 0.356454,0.6069208 0.937766,1.0496474 1.61914,1.2265625 0.681878,0.1770318 1.408658,0.074372 2.015625,-0.2832031 l -0.0078,0.00586 c 0.564082,-0.3232131 1.261367,-0.1355607 1.585937,0.4277344 l 0.580078,1.0078124 0.0039,0.00781 a 0.750075,0.750075 0 0 0 0.03516,0.070312 c 0.320265,0.5611226 0.135788,1.2538905 -0.421875,1.5800782 l 0.0059,-0.00195 c -0.403796,0.2312385 -0.738633,0.5655078 -0.970703,0.9687498 -0.355487,0.610084 -0.453468,1.337302 -0.271484,2.019531 0.181847,0.682383 0.628141,1.265091 1.240234,1.617188 0.266502,0.153336 0.46178,0.406023 0.541016,0.703125 0.07847,0.296471 0.03529,0.611856 -0.119141,0.876953 l -0.654297,1.089844 a 0.750075,0.750075 0 0 0 -0.0039,0.0098 c -0.326434,0.561167 -1.02335,0.746003 -1.585938,0.421874 a 0.750075,0.750075 0 0 0 -0.0039,0 C 17.52351,17.068123 17.089829,16.945505 16.644531,16.933594 a 0.750075,0.750075 0 0 0 -0.01758,0 c -0.707922,-0.0033 -1.388019,0.276691 -1.888672,0.777344 -0.4988,0.4988 -0.778587,1.175763 -0.777343,1.880859 C 13.957749,20.240561 13.445839,20.75 12.796875,20.75 l -1.253906,0 c -0.651291,0 -1.16211,-0.510943 -1.16211,-1.162109 a 0.750075,0.750075 0 0 0 0,-0.0078 C 10.376159,19.127753 10.251363,18.684352 10.021484,18.294922 9.671087,17.685374 9.0933389,17.240328 8.4140625,17.058594 7.7373214,16.877538 7.0148964,16.9723 6.4082031,17.322266 6.1380329,17.473726 5.8193705,17.510476 5.5214844,17.425781 5.2235951,17.341141 4.9724147,17.142023 4.8222656,16.871094 a 0.750075,0.750075 0 0 0 -0.00781,-0.01367 l -0.6308593,-1.085938 0,-0.002 c -0.3212518,-0.558985 -0.1363382,-1.251299 0.421875,-1.574219 0.8229639,-0.475091 1.3300781,-1.356464 1.3300781,-2.30664 0,-0.949286 -0.5066137,-1.82926 -1.328125,-2.3046876 l -0.00195,-0.00195 C 4.0475264,9.2557615 3.8628853,8.5629696 4.1835938,8.0019531 L 4.84375,6.9140625 a 0.750075,0.750075 0 0 0 0.00781,-0.013672 C 5.176098,6.337122 5.873469,6.1475087 6.4375,6.4707031 l -0.00977,-0.00586 C 6.8184875,6.6967453 7.2643408,6.8214637 7.71875,6.8261719 a 0.750075,0.750075 0 0 0 0.00781,0 c 1.4474597,1.522e-4 2.6413365,-1.1776801 2.6621095,-2.625 a 0.750075,0.750075 0 0 0 0,-0.013672 c -0.0015,-0.3072752 0.119154,-0.6025037 0.335937,-0.8203125 a 0.750075,0.750075 0 0 0 0.002,0 c 0.216764,-0.2178187 0.509007,-0.3398437 0.816407,-0.3398437 z m 0.632812,5.4765624 c -1.861134,0 -3.3867185,1.5236218 -3.3867185,3.3847658 0,1.861216 1.5256085,3.386719 3.3867185,3.386719 1.86111,0 3.384766,-1.525503 3.384766,-3.386719 0,-1.861144 -1.523632,-3.3847658 -3.384766,-3.3847658 z m 0,1.4999998 c 1.050466,0 1.884766,0.83431 1.884766,1.884766 0,1.050584 -0.834276,1.886719 -1.884766,1.886719 -1.05049,0 -1.886719,-0.836135 -1.886719,-1.886719 0,-1.050456 0.836253,-1.884766 1.886719,-1.884766 z" />
</svg>
