<svg width="32" height="32" viewBox="0 0 32 32" fill="none" xmlns="http://www.w3.org/2000/svg">
<path d="M27.8667 15.4665C27.7333 15.3332 27.7333 15.1998 27.6 15.0665L23.6 11.0665C23.0667 10.5332 22.2667 10.5332 21.7333 11.0665C21.2 11.5998 21.2 12.3998 21.7333 12.9332L23.4667 14.6665H17.3333C16.5333 14.6665 16 15.1998 16 15.9998C16 16.7998 16.5333 17.3332 17.3333 17.3332H23.4667L21.7333 19.0665C21.2 19.5998 21.2 20.3998 21.7333 20.9332C22 21.1998 22.4 21.3332 22.6667 21.3332C22.9333 21.3332 23.3333 21.1998 23.6 20.9332L27.6 16.9332C27.7333 16.7998 27.8667 16.6665 27.8667 16.5332C28 16.1332 28 15.8665 27.8667 15.4665Z" fill="#DC6567"/>
<path d="M20.6667 24.1333C19.2 24.9333 17.6 25.3333 16 25.3333C10.8 25.3333 6.66667 21.2 6.66667 16C6.66667 10.8 10.8 6.66667 16 6.66667C17.6 6.66667 19.2 7.06667 20.6667 7.86667C21.3333 8.26667 22.1333 8 22.5333 7.33333C22.9333 6.66667 22.6667 5.86667 22 5.46667C20.1333 4.53333 18.1333 4 16 4C9.33333 4 4 9.33333 4 16C4 22.6667 9.33333 28 16 28C18.1333 28 20.1333 27.4667 22 26.4C22.6667 26 22.8 25.2 22.5333 24.5333C22.1333 24 21.3333 23.7333 20.6667 24.1333Z" fill="#DC6567"/>
</svg>
