<svg xmlns="http://www.w3.org/2000/svg" viewBox="0 0 256 256"><path d="M48.6 181h37.3c3.2 0 5.8-2.6 5.8-5.8 0-3.2-2.6-5.8-5.8-5.8H48.6c-3.2 0-5.8 2.6-5.8 5.8 0 3.2 2.6 5.8 5.8 5.8zm119.9 0c3.2 0 5.8-2.6 5.8-5.8 0-3.2-2.6-5.8-5.8-5.8h-58.3c-3.2 0-5.8 2.6-5.8 5.8 0 3.2 2.6 5.8 5.8 5.8h58.3z"/><path d="M221.2 82c-8.5-8.5-17.2-17.2-31.5-20.9-15.7-5.7-32.3-4.9-46.8 1.1-1.4-2.2-3.9-3.7-6.8-3.7-4.5 0-8.1 3.6-8.1 8.1 0 1.3.3 2.5.9 3.6-9.9 7.4-17.9 17.6-22.5 30.1-.1.2-.1.4-.2.6-3.5 13.8-3.5 27.9 0 41.7.5 2.2 2.3 3.9 4.5 4.3.4.1.7.1 1.1.1 1.8 0 3.6-.9 4.7-2.4 7.2-10.1 16.8-15.4 27.7-15.4 1.7 0 3.3-.7 4.4-2 3.1-3.7 7.2-7.4 11.6-10.8l.3.6c14.1 20.1 23.6 43.2 28.9 70.3H38.9c-3.2 0-5.8 2.6-5.8 5.8s2.6 5.8 5.8 5.8h165.3c3.2 0 5.8-2.6 5.8-5.8s-2.6-5.8-5.8-5.8h-3c-5.6-29.7-15.8-54.9-31.2-76.9 4.9-2.4 10-3.9 14.7-3.9 1.7 0 3.3-.8 4.4-2.1 6.8-8.2 13.3-9.5 29.1-12.6 2.1-.4 3.8-2 4.4-4 .7-2.1.1-4.3-1.4-5.8zm-105.7 46.5c-.8-8.2-.1-16.4 1.9-24.5 2.9-7.7 7.3-14.3 12.8-19.7l8.4 33.7c-8.6 1.1-16.4 4.7-23.1 10.5zm33.1-17.7-8.4-33.6v-.8c1-.6 1.9-1.1 2.9-1.6l28.1 22.5c-8.2 2.8-16.1 7.9-22.6 13.5zm35.6-18-28.4-22.7c9.7-2.2 20.1-1.8 30.1 1.9.2.1.4.1.6.2 7.6 1.9 13.4 5.8 18.7 10.5-8.4 2-15 4.5-21 10.1zM71.3 103.2c10.3 0 18.7-8.4 18.7-18.7 0-10.3-8.4-18.7-18.7-18.7s-18.7 8.4-18.7 18.7c-.1 10.3 8.3 18.7 18.7 18.7zm0-26c4 0 7.2 3.2 7.2 7.2s-3.2 7.2-7.2 7.2-7.2-3.2-7.2-7.2c0-3.9 3.2-7.2 7.2-7.2z"/></svg>