<svg width="32" height="32" viewBox="0 0 32 32" fill="none" xmlns="http://www.w3.org/2000/svg">
<path d="M26.6667 7.99984H21.3333V5.33317C21.3333 3.85317 20.1467 2.6665 18.6667 2.6665H13.3333C11.8533 2.6665 10.6667 3.85317 10.6667 5.33317V7.99984H5.33332C3.85332 7.99984 2.67999 9.1865 2.67999 10.6665L2.66666 25.3332C2.66666 26.8132 3.85332 27.9998 5.33332 27.9998H26.6667C28.1467 27.9998 29.3333 26.8132 29.3333 25.3332V10.6665C29.3333 9.1865 28.1467 7.99984 26.6667 7.99984ZM13.3333 5.33317H18.6667V7.99984H13.3333V5.33317ZM26.6667 25.3332H5.33332V10.6665H26.6667V25.3332Z" fill="black"/>
</svg>
